<svg width="10" height="14" viewBox="0 0 10 14" fill="none" xmlns="http://www.w3.org/2000/svg">
<path d="M4.98679 0C2.23867 0 0.00292969 2.23223 0.00292969 4.97599C0.00292969 8.38109 4.46299 13.38 4.65288 13.5911C4.83124 13.7895 5.14265 13.7891 5.32069 13.5911C5.51058 13.38 9.97064 8.38109 9.97064 4.97599C9.97059 2.23223 7.73487 0 4.98679 0ZM4.98679 7.47956C3.60414 7.47956 2.47931 6.35646 2.47931 4.97599C2.47931 3.59552 3.60417 2.47246 4.98679 2.47246C6.3694 2.47246 7.49424 3.59555 7.49424 4.97602C7.49424 6.35649 6.3694 7.47956 4.98679 7.47956Z" fill="white"/>
</svg>
