<svg width="13" height="14" viewBox="0 0 13 14" fill="none" xmlns="http://www.w3.org/2000/svg">
<path d="M9.81972 8.71851C9.39774 8.30257 8.87094 8.30257 8.45164 8.71851C8.1318 9.03517 7.81195 9.35182 7.49749 9.67384C7.41148 9.76239 7.33891 9.78118 7.23408 9.72214C7.02713 9.60944 6.80673 9.5182 6.60783 9.39476C5.68055 8.81244 4.90379 8.06374 4.21572 7.22113C3.87437 6.8025 3.57065 6.35436 3.35832 5.84986C3.31532 5.74789 3.32338 5.6808 3.4067 5.59761C3.72654 5.28901 4.03833 4.97236 4.3528 4.6557C4.7909 4.21561 4.7909 3.70038 4.35011 3.2576C4.10014 3.00535 3.85018 2.75847 3.60022 2.50622C3.34219 2.24861 3.08686 1.98831 2.82614 1.73338C2.40416 1.3228 1.87736 1.3228 1.45807 1.73606C1.13554 2.05271 0.826442 2.37742 0.498534 2.6887C0.194817 2.97584 0.0416137 3.32737 0.00936049 3.73795C-0.0417071 4.40614 0.122247 5.03676 0.353395 5.65128C0.826442 6.92326 1.54676 8.05301 2.42029 9.08884C3.60022 10.4896 5.00861 11.5979 6.65621 12.3976C7.39804 12.7572 8.16674 13.0336 9.00264 13.0792C9.57782 13.1114 10.0777 12.9665 10.4782 12.5183C10.7524 12.2124 11.0615 11.9333 11.3517 11.6408C11.7818 11.2061 11.7845 10.6802 11.3571 10.2508C10.8464 9.73824 10.3331 9.22838 9.81972 8.71851Z" fill="white"/>
<path d="M9.30612 6.57861L10.2979 6.40951C10.142 5.49958 9.71198 4.67553 9.05885 4.0206C8.36809 3.33076 7.49457 2.89593 6.53234 2.76172L6.39258 3.75755C7.13709 3.86223 7.81441 4.19775 8.34928 4.7319C8.85458 5.23653 9.18517 5.87536 9.30612 6.57861Z" fill="white"/>
<path d="M10.8571 2.2744C9.71212 1.13117 8.26341 0.409266 6.66418 0.186523L6.52441 1.18216C7.90593 1.37538 9.15844 2.00067 10.1475 2.98557C11.0856 3.92217 11.7011 5.10566 11.9242 6.40723L12.916 6.23816C12.6552 4.72994 11.943 3.36128 10.8571 2.2744Z" fill="white"/>
</svg>
